<svg xmlns="http://www.w3.org/2000/svg" xmlns:xlink="http://www.w3.org/1999/xlink" width="500" zoomAndPan="magnify" viewBox="0 0 375 374.999991" height="500" preserveAspectRatio="xMidYMid meet" version="1.0"><defs><g/></defs><rect x="-37.5" width="450" fill="#ffffff" y="-37.499999" height="449.999989" fill-opacity="1"/><rect x="-37.5" width="450" fill="#e1e1e1" y="-37.499999" height="449.999989" fill-opacity="1"/><g fill="#000000" fill-opacity="1"><g transform="translate(164.961336, 258.450254)"><g><path d="M -9.21875 -79.5625 C -12.5 -83.476562 -14.140625 -87.367188 -14.140625 -91.234375 C -14.140625 -95.097656 -13.238281 -98.429688 -11.4375 -101.234375 C -9.632812 -104.035156 -6.722656 -106.414062 -2.703125 -108.375 C 1.316406 -110.332031 5.867188 -111.3125 10.953125 -111.3125 L 76.0625 -111.3125 C 79.34375 -111.3125 82.96875 -111.628906 86.9375 -112.265625 C 90.90625 -112.898438 93.6875 -113.535156 95.28125 -114.171875 L 95.28125 -94.171875 L 93.6875 -94.328125 L 93.6875 -97.03125 C 93.6875 -99.570312 92.785156 -101.765625 90.984375 -103.609375 C 89.179688 -105.460938 87.066406 -106.441406 84.640625 -106.546875 L 54.46875 -106.546875 L 54.46875 -11.4375 C 54.570312 -7.625 56.265625 -4.765625 59.546875 -2.859375 C 61.128906 -2.015625 62.820312 -1.59375 64.625 -1.59375 L 66.6875 -1.59375 L 66.6875 0 L 31.921875 0 L 31.921875 -1.59375 L 33.984375 -1.59375 C 36.734375 -1.59375 39.085938 -2.539062 41.046875 -4.4375 C 43.003906 -6.34375 44.035156 -8.625 44.140625 -11.28125 L 44.140625 -106.546875 L 10.953125 -106.546875 C 2.484375 -106.546875 -3.65625 -103.847656 -7.46875 -98.453125 C -9.476562 -95.703125 -10.484375 -92.816406 -10.484375 -89.796875 C -10.484375 -86.785156 -9.632812 -83.632812 -7.9375 -80.34375 Z M -9.21875 -79.5625 "/></g></g></g><g fill="#000000" fill-opacity="1"><g transform="translate(97.12831, 235.88332)"><g><path d="M 18.890625 -116.5625 C 25.773438 -119.414062 32.394531 -120.84375 38.75 -120.84375 C 44.039062 -120.84375 49.488281 -118.882812 55.09375 -114.96875 C 58.164062 -112.851562 61.609375 -108.722656 65.421875 -102.578125 C 67.960938 -98.347656 71.191406 -90.675781 75.109375 -79.5625 L 94.484375 -24.609375 C 98.929688 -12.328125 103.457031 -2.5625 108.0625 4.6875 C 112.664062 11.9375 116.875 17.382812 120.6875 21.03125 C 124.5 24.6875 128.46875 27.253906 132.59375 28.734375 C 136.71875 30.222656 140.128906 30.96875 142.828125 30.96875 C 145.535156 30.96875 147.945312 30.753906 150.0625 30.328125 L 150.21875 31.921875 C 145.132812 33.609375 140.15625 34.453125 135.28125 34.453125 C 130.414062 34.453125 125.546875 33.207031 120.671875 30.71875 C 115.804688 28.238281 111.257812 24.773438 107.03125 20.328125 C 97.925781 11.117188 90.195312 -2.90625 83.84375 -21.75 L 77.65625 -39.859375 L 34.140625 -39.859375 L 23.1875 -11.59375 C 22.65625 -10.320312 22.390625 -9.050781 22.390625 -7.78125 C 22.390625 -6.507812 22.941406 -5.160156 24.046875 -3.734375 C 25.160156 -2.304688 26.882812 -1.59375 29.21875 -1.59375 L 30.484375 -1.59375 L 30.484375 0 L -1.4375 0 L -1.4375 -1.59375 L 0 -1.59375 C 2.539062 -1.59375 5.023438 -2.359375 7.453125 -3.890625 C 9.890625 -5.421875 11.90625 -7.722656 13.5 -10.796875 L 52.875 -105.125 C 47.15625 -113.269531 40.0625 -117.34375 31.59375 -117.34375 C 27.78125 -117.34375 23.707031 -116.550781 19.375 -114.96875 Z M 35.890625 -44.625 L 76.0625 -44.625 L 63.515625 -81.625 C 61.078125 -88.71875 58.851562 -94.273438 56.84375 -98.296875 Z M 35.890625 -44.625 "/></g></g></g><path fill="#e1e1e1" d="M 103.570312 179.496094 L 256.734375 179.496094 C 257.796875 179.496094 258.8125 179.917969 259.5625 180.667969 C 260.3125 181.417969 260.734375 182.4375 260.734375 183.5 L 260.734375 191.5 C 260.734375 192.5625 260.3125 193.582031 259.5625 194.332031 C 258.8125 195.082031 257.796875 195.503906 256.734375 195.503906 L 103.570312 195.503906 C 102.511719 195.503906 101.492188 195.082031 100.742188 194.332031 C 99.992188 193.582031 99.570312 192.5625 99.570312 191.5 L 99.570312 183.5 C 99.570312 182.4375 99.992188 181.417969 100.742188 180.667969 C 101.492188 179.917969 102.511719 179.496094 103.570312 179.496094 Z M 103.570312 179.496094 " fill-opacity="1" fill-rule="nonzero"/><g fill="#000000" fill-opacity="1"><g transform="translate(107.388382, 190.499987)"><g><path d="M -0.09375 0 L 2.9375 -7.109375 L 4.03125 -7.109375 L 6.953125 0 L 5.625 0 L 4.984375 -1.625 L 1.890625 -1.625 L 1.21875 0 Z M 2.328125 -2.71875 L 4.5625 -2.71875 L 3.46875 -5.515625 Z M 2.328125 -2.71875 "/></g></g></g><g fill="#000000" fill-opacity="1"><g transform="translate(121.896324, 190.499987)"><g><path d="M 0.734375 0 L 0.734375 -7.109375 L 2.03125 -7.109375 L 2.03125 -1.140625 L 5.203125 -1.140625 L 5.109375 0 Z M 0.734375 0 "/></g></g></g><g fill="#000000" fill-opacity="1"><g transform="translate(134.6629, 190.499987)"><g><path d="M 5.3125 -5.984375 L 2 -5.984375 L 2 -4.15625 L 5.140625 -4.15625 L 5.140625 -3.03125 L 2 -3.03125 L 2 -1.125 L 5.421875 -1.125 L 5.34375 0 L 0.734375 0 L 0.734375 -7.109375 L 5.3125 -7.109375 Z M 5.3125 -5.984375 "/></g></g></g><g fill="#000000" fill-opacity="1"><g transform="translate(147.939882, 190.499987)"><g><path d="M 1.375 0 L -0.0625 0 L 2.34375 -3.609375 L 0.078125 -7.109375 L 1.546875 -7.109375 L 3.09375 -4.703125 L 4.640625 -7.109375 L 6.046875 -7.109375 L 3.765625 -3.671875 L 6.140625 0 L 4.640625 0 L 3.046875 -2.546875 Z M 1.375 0 "/></g></g></g><g fill="#000000" fill-opacity="1"><g transform="translate(161.697242, 190.499987)"><g/></g></g><g fill="#000000" fill-opacity="1"><g transform="translate(171.751694, 190.499987)"><g><path d="M 5.890625 -7.109375 L 5.734375 -5.96875 L 3.53125 -5.96875 L 3.53125 0 L 2.21875 0 L 2.21875 -5.96875 L -0.0625 -5.96875 L -0.0625 -7.109375 Z M 5.890625 -7.109375 "/></g></g></g><g fill="#000000" fill-opacity="1"><g transform="translate(185.118741, 190.499987)"><g><path d="M 0.734375 0 L 0.734375 -7.109375 L 2.03125 -7.109375 L 2.03125 -4.171875 L 5.40625 -4.171875 L 5.40625 -7.109375 L 6.703125 -7.109375 L 6.703125 0 L 5.40625 0 L 5.40625 -3.03125 L 2.03125 -3.03125 L 2.03125 0 Z M 0.734375 0 "/></g></g></g><g fill="#000000" fill-opacity="1"><g transform="translate(200.167108, 190.499987)"><g><path d="M 3.890625 0.09375 C 3.171875 0.09375 2.550781 -0.0390625 2.03125 -0.3125 C 1.519531 -0.59375 1.128906 -0.992188 0.859375 -1.515625 C 0.585938 -2.046875 0.453125 -2.679688 0.453125 -3.421875 C 0.453125 -4.160156 0.597656 -4.816406 0.890625 -5.390625 C 1.179688 -5.960938 1.59375 -6.410156 2.125 -6.734375 C 2.664062 -7.054688 3.304688 -7.21875 4.046875 -7.21875 C 4.703125 -7.21875 5.273438 -7.066406 5.765625 -6.765625 C 6.265625 -6.472656 6.648438 -6.0625 6.921875 -5.53125 C 7.191406 -5.007812 7.328125 -4.398438 7.328125 -3.703125 C 7.328125 -2.929688 7.175781 -2.257812 6.875 -1.6875 C 6.582031 -1.125 6.175781 -0.6875 5.65625 -0.375 C 5.144531 -0.0625 4.554688 0.09375 3.890625 0.09375 Z M 3.859375 -1.078125 C 4.273438 -1.078125 4.644531 -1.179688 4.96875 -1.390625 C 5.289062 -1.597656 5.546875 -1.894531 5.734375 -2.28125 C 5.921875 -2.664062 6.015625 -3.140625 6.015625 -3.703125 C 6.015625 -4.410156 5.832031 -4.976562 5.46875 -5.40625 C 5.101562 -5.832031 4.617188 -6.046875 4.015625 -6.046875 C 3.578125 -6.046875 3.191406 -5.9375 2.859375 -5.71875 C 2.523438 -5.5 2.257812 -5.195312 2.0625 -4.8125 C 1.863281 -4.425781 1.765625 -3.972656 1.765625 -3.453125 C 1.765625 -2.691406 1.953125 -2.101562 2.328125 -1.6875 C 2.703125 -1.28125 3.210938 -1.078125 3.859375 -1.078125 Z M 3.859375 -1.078125 "/></g></g></g><g fill="#000000" fill-opacity="1"><g transform="translate(215.565756, 190.499987)"><g><path d="M 0.6875 0 L 0.96875 -7.109375 L 2.09375 -7.109375 L 4.703125 -1.625 L 7.296875 -7.109375 L 8.421875 -7.109375 L 8.640625 0 L 7.390625 0 L 7.25 -4.421875 L 5.140625 0 L 4.15625 0 L 2.078125 -4.390625 L 1.890625 0 Z M 0.6875 0 "/></g></g></g><g fill="#000000" fill-opacity="1"><g transform="translate(232.535627, 190.499987)"><g><path d="M -0.09375 0 L 2.9375 -7.109375 L 4.03125 -7.109375 L 6.953125 0 L 5.625 0 L 4.984375 -1.625 L 1.890625 -1.625 L 1.21875 0 Z M 2.328125 -2.71875 L 4.5625 -2.71875 L 3.46875 -5.515625 Z M 2.328125 -2.71875 "/></g></g></g><g fill="#000000" fill-opacity="1"><g transform="translate(247.043575, 190.499987)"><g><path d="M 2.9375 0.09375 C 2.101562 0.09375 1.453125 -0.09375 0.984375 -0.46875 C 0.523438 -0.84375 0.257812 -1.390625 0.1875 -2.109375 L 1.40625 -2.296875 C 1.53125 -1.441406 2.0625 -1.015625 3 -1.015625 C 3.40625 -1.015625 3.722656 -1.09375 3.953125 -1.25 C 4.179688 -1.414062 4.296875 -1.644531 4.296875 -1.9375 C 4.296875 -2.207031 4.179688 -2.410156 3.953125 -2.546875 C 3.722656 -2.679688 3.359375 -2.8125 2.859375 -2.9375 C 2.390625 -3.050781 1.988281 -3.1875 1.65625 -3.34375 C 1.320312 -3.5 1.066406 -3.707031 0.890625 -3.96875 C 0.710938 -4.238281 0.625 -4.59375 0.625 -5.03125 C 0.625 -5.457031 0.734375 -5.832031 0.953125 -6.15625 C 1.171875 -6.488281 1.46875 -6.75 1.84375 -6.9375 C 2.226562 -7.125 2.671875 -7.21875 3.171875 -7.21875 C 3.835938 -7.21875 4.378906 -7.039062 4.796875 -6.6875 C 5.210938 -6.34375 5.457031 -5.867188 5.53125 -5.265625 L 4.390625 -5.0625 C 4.253906 -5.757812 3.828125 -6.109375 3.109375 -6.109375 C 2.765625 -6.109375 2.484375 -6.015625 2.265625 -5.828125 C 2.046875 -5.648438 1.9375 -5.414062 1.9375 -5.125 C 1.9375 -4.832031 2.039062 -4.609375 2.25 -4.453125 C 2.46875 -4.296875 2.835938 -4.15625 3.359375 -4.03125 C 3.816406 -3.925781 4.210938 -3.800781 4.546875 -3.65625 C 4.878906 -3.519531 5.132812 -3.320312 5.3125 -3.0625 C 5.5 -2.8125 5.59375 -2.460938 5.59375 -2.015625 C 5.59375 -1.609375 5.476562 -1.242188 5.25 -0.921875 C 5.03125 -0.609375 4.722656 -0.359375 4.328125 -0.171875 C 3.929688 0.00390625 3.46875 0.09375 2.9375 0.09375 Z M 2.9375 0.09375 "/></g></g></g></svg>